<svg width="75" height="72" viewBox="0 0 75 72" fill="none" xmlns="http://www.w3.org/2000/svg">
  <path
    d="M47.6625 31.4148C47.3139 31.0596 46.8991 30.7777 46.4422 30.5853C45.9852 30.3929 45.495 30.2939 45 30.2939C44.505 30.2939 44.0148 30.3929 43.5578 30.5853C43.1009 30.7777 42.6861 31.0596 42.3375 31.4148L37.5 36.3411L32.6625 31.4148C31.9564 30.7012 30.9986 30.3003 30 30.3003C29.0014 30.3003 28.0436 30.7012 27.3375 31.4148C26.6314 32.1284 26.2347 33.0962 26.2347 34.1053C26.2347 35.1144 26.6314 36.0823 27.3375 36.7958L32.2125 41.6842L27.3375 46.5727C26.986 46.9249 26.707 47.3441 26.5167 47.8058C26.3263 48.2676 26.2283 48.7629 26.2283 49.2632C26.2283 49.7634 26.3263 50.2587 26.5167 50.7205C26.707 51.1823 26.986 51.6014 27.3375 51.9537C27.6861 52.3089 28.1009 52.5908 28.5578 52.7832C29.0148 52.9756 29.505 53.0746 30 53.0746C30.495 53.0746 30.9852 52.9756 31.4422 52.7832C31.8991 52.5908 32.3139 52.3089 32.6625 51.9537L37.5 47.0274L42.3375 51.9537C42.6861 52.3089 43.1009 52.5908 43.5578 52.7832C44.0148 52.9756 44.505 53.0746 45 53.0746C45.495 53.0746 45.9852 52.9756 46.4422 52.7832C46.8991 52.5908 47.3139 52.3089 47.6625 51.9537C48.014 51.6014 48.293 51.1823 48.4833 50.7205C48.6737 50.2587 48.7717 49.7634 48.7717 49.2632C48.7717 48.7629 48.6737 48.2676 48.4833 47.8058C48.293 47.3441 48.014 46.9249 47.6625 46.5727L42.7875 41.6842L47.6625 36.7958C48.014 36.4435 48.293 36.0244 48.4833 35.5626C48.6737 35.1009 48.7717 34.6056 48.7717 34.1053C48.7717 33.605 48.6737 33.1097 48.4833 32.648C48.293 32.1862 48.014 31.7671 47.6625 31.4148ZM63.75 11.3685H40.2L39 7.57902C38.2221 5.35548 36.7791 3.43146 34.8709 2.07353C32.9627 0.715606 30.6838 -0.00900719 28.35 8.45188e-05H11.25C8.26631 8.45188e-05 5.40483 1.19782 3.29505 3.32981C1.18526 5.4618 0 8.3534 0 11.3685V60.6316C0 63.6467 1.18526 66.5383 3.29505 68.6703C5.40483 70.8023 8.26631 72 11.25 72H63.75C66.7337 72 69.5952 70.8023 71.705 68.6703C73.8147 66.5383 75 63.6467 75 60.6316V22.7369C75 19.7218 73.8147 16.8302 71.705 14.6982C69.5952 12.5662 66.7337 11.3685 63.75 11.3685ZM67.5 60.6316C67.5 61.6366 67.1049 62.6005 66.4017 63.3112C65.6984 64.0218 64.7446 64.4211 63.75 64.4211H11.25C10.2554 64.4211 9.30161 64.0218 8.59835 63.3112C7.89509 62.6005 7.5 61.6366 7.5 60.6316V11.3685C7.5 10.3635 7.89509 9.3996 8.59835 8.68893C9.30161 7.97827 10.2554 7.57902 11.25 7.57902H28.35C29.1362 7.57697 29.9031 7.82465 30.5424 8.28706C31.1816 8.74946 31.6609 9.40319 31.9125 10.1559L33.9375 16.3706C34.1891 17.1233 34.6684 17.777 35.3076 18.2394C35.9469 18.7018 36.7138 18.9495 37.5 18.9474H63.75C64.7446 18.9474 65.6984 19.3467 66.4017 20.0573C67.1049 20.768 67.5 21.7319 67.5 22.7369V60.6316Z"
    fill="black" />
</svg>
