<svg width="25" height="25" viewBox="0 0 25 25" fill="none" xmlns="http://www.w3.org/2000/svg">
  <circle cx="12.5" cy="12.5" r="10.5" fill="white" />
  <path
    d="M12.5 0C10.0277 0 7.61099 0.733112 5.55538 2.10663C3.49976 3.48015 1.89761 5.43238 0.951511 7.71645C0.0054161 10.0005 -0.242126 12.5139 0.24019 14.9386C0.722505 17.3634 1.91301 19.5907 3.66117 21.3388C5.40933 23.087 7.63661 24.2775 10.0614 24.7598C12.4861 25.2421 14.9995 24.9946 17.2835 24.0485C19.5676 23.1024 21.5199 21.5002 22.8934 19.4446C24.2669 17.389 25 14.9723 25 12.5C25 10.8585 24.6767 9.23302 24.0485 7.71645C23.4203 6.19989 22.4996 4.8219 21.3388 3.66116C20.1781 2.50043 18.8001 1.57969 17.2835 0.951506C15.767 0.323322 14.1415 0 12.5 0ZM12.5 22.5C10.5222 22.5 8.58879 21.9135 6.9443 20.8147C5.29981 19.7159 4.01809 18.1541 3.26121 16.3268C2.50433 14.4996 2.3063 12.4889 2.69215 10.5491C3.078 8.60928 4.03041 6.82746 5.42894 5.42893C6.82746 4.03041 8.60929 3.078 10.5491 2.69215C12.4889 2.30629 14.4996 2.50433 16.3268 3.2612C18.1541 4.01808 19.7159 5.2998 20.8147 6.9443C21.9135 8.58879 22.5 10.5222 22.5 12.5C22.5 15.1522 21.4464 17.6957 19.5711 19.5711C17.6957 21.4464 15.1522 22.5 12.5 22.5ZM17.5 11.25H13.75V7.5C13.75 7.16848 13.6183 6.85054 13.3839 6.61612C13.1495 6.38169 12.8315 6.25 12.5 6.25C12.1685 6.25 11.8505 6.38169 11.6161 6.61612C11.3817 6.85054 11.25 7.16848 11.25 7.5V11.25H7.5C7.16848 11.25 6.85054 11.3817 6.61612 11.6161C6.3817 11.8505 6.25 12.1685 6.25 12.5C6.25 12.8315 6.3817 13.1495 6.61612 13.3839C6.85054 13.6183 7.16848 13.75 7.5 13.75H11.25V17.5C11.25 17.8315 11.3817 18.1495 11.6161 18.3839C11.8505 18.6183 12.1685 18.75 12.5 18.75C12.8315 18.75 13.1495 18.6183 13.3839 18.3839C13.6183 18.1495 13.75 17.8315 13.75 17.5V13.75H17.5C17.8315 13.75 18.1495 13.6183 18.3839 13.3839C18.6183 13.1495 18.75 12.8315 18.75 12.5C18.75 12.1685 18.6183 11.8505 18.3839 11.6161C18.1495 11.3817 17.8315 11.25 17.5 11.25Z"
    fill="black" />
</svg>
