<svg width="25" height="25" viewBox="0 0 25 25" fill="none" xmlns="http://www.w3.org/2000/svg">
  <circle cx="12.5" cy="12.5" r="10.5" fill="white" />
  <path
    d="M17.0812 7.91879C16.9664 7.80306 16.8298 7.71119 16.6794 7.6485C16.5289 7.58581 16.3675 7.55353 16.2045 7.55353C16.0415 7.55353 15.8801 7.58581 15.7296 7.6485C15.5791 7.71119 15.4425 7.80306 15.3278 7.91879L12.5 10.7589L9.67225 7.91879C9.43972 7.68627 9.12436 7.55564 8.79552 7.55564C8.46668 7.55564 8.15132 7.68627 7.91879 7.91879C7.68627 8.15132 7.55564 8.46668 7.55564 8.79552C7.55564 9.12436 7.68627 9.43972 7.91879 9.67225L10.7589 12.5L7.91879 15.3278C7.80306 15.4425 7.71119 15.5791 7.6485 15.7296C7.58581 15.8801 7.55353 16.0415 7.55353 16.2045C7.55353 16.3675 7.58581 16.5289 7.6485 16.6794C7.71119 16.8298 7.80306 16.9664 7.91879 17.0812C8.03359 17.1969 8.17016 17.2888 8.32063 17.3515C8.47111 17.4142 8.63251 17.4465 8.79552 17.4465C8.95853 17.4465 9.11993 17.4142 9.27041 17.3515C9.42088 17.2888 9.55745 17.1969 9.67225 17.0812L12.5 14.2411L15.3278 17.0812C15.4425 17.1969 15.5791 17.2888 15.7296 17.3515C15.8801 17.4142 16.0415 17.4465 16.2045 17.4465C16.3675 17.4465 16.5289 17.4142 16.6794 17.3515C16.8298 17.2888 16.9664 17.1969 17.0812 17.0812C17.1969 16.9664 17.2888 16.8298 17.3515 16.6794C17.4142 16.5289 17.4465 16.3675 17.4465 16.2045C17.4465 16.0415 17.4142 15.8801 17.3515 15.7296C17.2888 15.5791 17.1969 15.4425 17.0812 15.3278L14.2411 12.5L17.0812 9.67225C17.1969 9.55745 17.2888 9.42088 17.3515 9.27041C17.4142 9.11993 17.4465 8.95853 17.4465 8.79552C17.4465 8.63251 17.4142 8.47111 17.3515 8.32063C17.2888 8.17016 17.1969 8.03359 17.0812 7.91879ZM21.2302 3.76978C20.0911 2.59039 18.7286 1.64968 17.222 1.00252C15.7155 0.355356 14.0952 0.0147139 12.4556 0.00046623C10.816 -0.0137814 9.18995 0.298651 7.6724 0.919532C6.15484 1.54041 4.77613 2.45731 3.61672 3.61672C2.45731 4.77613 1.54041 6.15484 0.919532 7.6724C0.298651 9.18995 -0.0137814 10.816 0.00046623 12.4556C0.0147139 14.0952 0.355356 15.7155 1.00252 17.222C1.64968 18.7286 2.59039 20.0911 3.76978 21.2302C4.90887 22.4096 6.27143 23.3503 7.77797 23.9975C9.2845 24.6446 10.9048 24.9853 12.5444 24.9995C14.184 25.0138 15.81 24.7013 17.3276 24.0805C18.8452 23.4596 20.2239 22.5427 21.3833 21.3833C22.5427 20.2239 23.4596 18.8452 24.0805 17.3276C24.7013 15.81 25.0138 14.184 24.9995 12.5444C24.9853 10.9048 24.6446 9.2845 23.9975 7.77797C23.3503 6.27143 22.4096 4.90887 21.2302 3.76978ZM19.4891 19.4891C17.874 21.106 15.7483 22.1129 13.474 22.3382C11.1998 22.5636 8.91778 21.9934 7.01678 20.7249C5.11579 19.4564 3.71342 17.568 3.04861 15.3814C2.38379 13.1949 2.49767 10.8455 3.37082 8.73351C4.24398 6.62152 5.8224 4.8776 7.83716 3.79887C9.85192 2.72015 12.1784 2.37335 14.4202 2.81757C16.6619 3.26179 18.6804 4.46954 20.1315 6.23506C21.5827 8.00058 22.3768 10.2146 22.3786 12.5C22.383 13.7982 22.1299 15.0843 21.6339 16.284C21.1379 17.4837 20.4089 18.5731 19.4891 19.4891Z"
    fill="black" />
</svg>
