<svg width="22" height="22" viewBox="0 0 22 22" fill="none" xmlns="http://www.w3.org/2000/svg">
  <path
    d="M12.9373 10.9988L21.5936 2.35542C21.8523 2.09666 21.9977 1.74571 21.9977 1.37977C21.9977 1.01383 21.8523 0.662884 21.5936 0.404126C21.3348 0.145369 20.9839 0 20.618 0C20.2521 0 19.9012 0.145369 19.6425 0.404126L11 9.06128L2.35751 0.404126C2.09878 0.145369 1.74787 3.24897e-07 1.38197 3.27623e-07C1.01607 3.3035e-07 0.665158 0.145369 0.406428 0.404126C0.147698 0.662884 0.00234521 1.01383 0.0023452 1.37977C0.0023452 1.74571 0.147698 2.09666 0.406428 2.35542L9.06265 10.9988L0.406428 19.6422C0.277645 19.77 0.175427 19.922 0.105671 20.0894C0.0359144 20.2569 0 20.4365 0 20.6179C0 20.7993 0.0359144 20.9789 0.105671 21.1463C0.175427 21.3138 0.277645 21.4658 0.406428 21.5935C0.53416 21.7223 0.686126 21.8246 0.853561 21.8943C1.021 21.9641 1.20059 22 1.38197 22C1.56336 22 1.74295 21.9641 1.91038 21.8943C2.07782 21.8246 2.22978 21.7223 2.35751 21.5935L11 12.9364L19.6425 21.5935C19.7702 21.7223 19.9222 21.8246 20.0896 21.8943C20.2571 21.9641 20.4366 22 20.618 22C20.7994 22 20.979 21.9641 21.1464 21.8943C21.3139 21.8246 21.4658 21.7223 21.5936 21.5935C21.7224 21.4658 21.8246 21.3138 21.8943 21.1463C21.9641 20.9789 22 20.7993 22 20.6179C22 20.4365 21.9641 20.2569 21.8943 20.0894C21.8246 19.922 21.7224 19.77 21.5936 19.6422L12.9373 10.9988Z"
    fill="black" />
</svg>
