<svg width="21" height="26" viewBox="0 0 21 26" fill="none" xmlns="http://www.w3.org/2000/svg">
  <path
    d="M21 9.022C20.9863 8.90257 20.9599 8.78492 20.9213 8.671V8.554C20.8581 8.42033 20.774 8.29746 20.6719 8.19L12.7969 0.39C12.6884 0.288881 12.5643 0.205505 12.4294 0.143C12.3902 0.137488 12.3504 0.137488 12.3112 0.143C12.1779 0.0672636 12.0307 0.0186475 11.8781 0H3.9375C2.89321 0 1.89169 0.410892 1.15327 1.14228C0.414843 1.87368 0 2.86566 0 3.9V22.1C0 23.1343 0.414843 24.1263 1.15327 24.8577C1.89169 25.5891 2.89321 26 3.9375 26H17.0625C18.1068 26 19.1083 25.5891 19.8467 24.8577C20.5852 24.1263 21 23.1343 21 22.1V9.1C21 9.1 21 9.1 21 9.022ZM13.125 4.433L16.5244 7.8H14.4375C14.0894 7.8 13.7556 7.66304 13.5094 7.41924C13.2633 7.17544 13.125 6.84478 13.125 6.5V4.433ZM18.375 22.1C18.375 22.4448 18.2367 22.7754 17.9906 23.0192C17.7444 23.263 17.4106 23.4 17.0625 23.4H3.9375C3.5894 23.4 3.25556 23.263 3.00942 23.0192C2.76328 22.7754 2.625 22.4448 2.625 22.1V3.9C2.625 3.55522 2.76328 3.22456 3.00942 2.98076C3.25556 2.73696 3.5894 2.6 3.9375 2.6H10.5V6.5C10.5 7.53434 10.9148 8.52633 11.6533 9.25772C12.3917 9.98911 13.3932 10.4 14.4375 10.4H18.375V22.1ZM13.5056 13.377L9.1875 17.667L7.49438 15.977C7.24723 15.7322 6.91202 15.5947 6.5625 15.5947C6.21298 15.5947 5.87777 15.7322 5.63062 15.977C5.38348 16.2218 5.24463 16.5538 5.24463 16.9C5.24463 17.2462 5.38348 17.5782 5.63062 17.823L8.25562 20.423C8.37764 20.5448 8.5228 20.6416 8.68274 20.7076C8.84268 20.7736 9.01423 20.8075 9.1875 20.8075C9.36077 20.8075 9.53232 20.7736 9.69226 20.7076C9.8522 20.6416 9.99736 20.5448 10.1194 20.423L15.3694 15.223C15.6165 14.9782 15.7554 14.6462 15.7554 14.3C15.7554 13.9538 15.6165 13.6218 15.3694 13.377C15.1222 13.1322 14.787 12.9947 14.4375 12.9947C14.088 12.9947 13.7528 13.1322 13.5056 13.377Z"
    fill="black" />
</svg>
