<svg width="25" height="25" viewBox="0 0 25 25" fill="none" xmlns="http://www.w3.org/2000/svg">
  <path
    d="M9.72222 20C10.0906 20 10.4438 19.8683 10.7043 19.6339C10.9648 19.3995 11.1111 19.0815 11.1111 18.75V11.25C11.1111 10.9185 10.9648 10.6005 10.7043 10.3661C10.4438 10.1317 10.0906 10 9.72222 10C9.35387 10 9.0006 10.1317 8.74013 10.3661C8.47966 10.6005 8.33333 10.9185 8.33333 11.25V18.75C8.33333 19.0815 8.47966 19.3995 8.74013 19.6339C9.0006 19.8683 9.35387 20 9.72222 20ZM23.6111 5H18.0556V3.75C18.0556 2.75544 17.6166 1.80161 16.8352 1.09835C16.0538 0.395088 14.994 0 13.8889 0H11.1111C10.006 0 8.94623 0.395088 8.16483 1.09835C7.38343 1.80161 6.94444 2.75544 6.94444 3.75V5H1.38889C1.02053 5 0.667263 5.1317 0.406796 5.36612C0.146329 5.60054 0 5.91848 0 6.25C0 6.58152 0.146329 6.89946 0.406796 7.13388C0.667263 7.3683 1.02053 7.5 1.38889 7.5H2.77778V21.25C2.77778 22.2446 3.21676 23.1984 3.99817 23.9017C4.77957 24.6049 5.83938 25 6.94444 25H18.0556C19.1606 25 20.2204 24.6049 21.0018 23.9017C21.7832 23.1984 22.2222 22.2446 22.2222 21.25V7.5H23.6111C23.9795 7.5 24.3327 7.3683 24.5932 7.13388C24.8537 6.89946 25 6.58152 25 6.25C25 5.91848 24.8537 5.60054 24.5932 5.36612C24.3327 5.1317 23.9795 5 23.6111 5ZM9.72222 3.75C9.72222 3.41848 9.86855 3.10054 10.129 2.86612C10.3895 2.6317 10.7428 2.5 11.1111 2.5H13.8889C14.2572 2.5 14.6105 2.6317 14.871 2.86612C15.1314 3.10054 15.2778 3.41848 15.2778 3.75V5H9.72222V3.75ZM19.4444 21.25C19.4444 21.5815 19.2981 21.8995 19.0376 22.1339C18.7772 22.3683 18.4239 22.5 18.0556 22.5H6.94444C6.57609 22.5 6.22282 22.3683 5.96235 22.1339C5.70188 21.8995 5.55556 21.5815 5.55556 21.25V7.5H19.4444V21.25ZM15.2778 20C15.6461 20 15.9994 19.8683 16.2599 19.6339C16.5203 19.3995 16.6667 19.0815 16.6667 18.75V11.25C16.6667 10.9185 16.5203 10.6005 16.2599 10.3661C15.9994 10.1317 15.6461 10 15.2778 10C14.9094 10 14.5562 10.1317 14.2957 10.3661C14.0352 10.6005 13.8889 10.9185 13.8889 11.25V18.75C13.8889 19.0815 14.0352 19.3995 14.2957 19.6339C14.5562 19.8683 14.9094 20 15.2778 20Z"
    fill="white" />
</svg>
