<svg width="27" height="32" viewBox="0 0 27 32" fill="none" xmlns="http://www.w3.org/2000/svg">
  <rect x="8" y="10" width="19" height="20" fill="white" />
  <rect x="8" y="3" width="12" height="20" fill="white" />
  <rect x="14" y="8" width="12" height="20" fill="white" />
  <rect x="11" y="3" width="12" height="20" fill="white" />
  <path
    d="M15.625 19.2H14.0625V17.6C14.0625 17.1757 13.8979 16.7687 13.6049 16.4686C13.3118 16.1686 12.9144 16 12.5 16C12.0856 16 11.6882 16.1686 11.3951 16.4686C11.1021 16.7687 10.9375 17.1757 10.9375 17.6V19.2H9.375C8.9606 19.2 8.56317 19.3686 8.27015 19.6686C7.97712 19.9687 7.8125 20.3757 7.8125 20.8C7.8125 21.2243 7.97712 21.6313 8.27015 21.9314C8.56317 22.2314 8.9606 22.4 9.375 22.4H10.9375V24C10.9375 24.4243 11.1021 24.8313 11.3951 25.1314C11.6882 25.4314 12.0856 25.6 12.5 25.6C12.9144 25.6 13.3118 25.4314 13.6049 25.1314C13.8979 24.8313 14.0625 24.4243 14.0625 24V22.4H15.625C16.0394 22.4 16.4368 22.2314 16.7299 21.9314C17.0229 21.6313 17.1875 21.2243 17.1875 20.8C17.1875 20.3757 17.0229 19.9687 16.7299 19.6686C16.4368 19.3686 16.0394 19.2 15.625 19.2ZM25 11.104C24.9837 10.957 24.9523 10.8122 24.9062 10.672V10.528C24.8311 10.3635 24.7309 10.2123 24.6094 10.08L15.2344 0.48C15.1052 0.355546 14.9575 0.25293 14.7969 0.176H14.6562C14.4975 0.082786 14.3222 0.0229507 14.1406 0H4.6875C3.4443 0 2.25201 0.505713 1.37294 1.40589C0.49386 2.30606 0 3.52696 0 4.8V27.2C0 28.473 0.49386 29.6939 1.37294 30.5941C2.25201 31.4943 3.4443 32 4.6875 32H20.3125C21.5557 32 22.748 31.4943 23.6271 30.5941C24.5061 29.6939 25 28.473 25 27.2V11.2C25 11.2 25 11.2 25 11.104ZM15.625 5.456L19.6719 9.6H17.1875C16.7731 9.6 16.3757 9.43143 16.0826 9.13137C15.7896 8.83131 15.625 8.42435 15.625 8V5.456ZM21.875 27.2C21.875 27.6243 21.7104 28.0313 21.4174 28.3314C21.1243 28.6314 20.7269 28.8 20.3125 28.8H4.6875C4.2731 28.8 3.87567 28.6314 3.58265 28.3314C3.28962 28.0313 3.125 27.6243 3.125 27.2V4.8C3.125 4.37565 3.28962 3.96869 3.58265 3.66863C3.87567 3.36857 4.2731 3.2 4.6875 3.2H12.5V8C12.5 9.27304 12.9939 10.4939 13.8729 11.3941C14.752 12.2943 15.9443 12.8 17.1875 12.8H21.875V27.2Z"
    fill="black" />
</svg>
