<svg width="24" height="32" viewBox="0 0 24 32" fill="none" xmlns="http://www.w3.org/2000/svg">
  <rect x="2" y="5" width="19" height="24" fill="white" />
  <rect x="9" y="2" width="6" height="6" fill="white" />
  <path
    d="M13.5 19.2H7.5C7.10218 19.2 6.72064 19.3686 6.43934 19.6686C6.15804 19.9687 6 20.3757 6 20.8C6 21.2243 6.15804 21.6313 6.43934 21.9314C6.72064 22.2314 7.10218 22.4 7.5 22.4H13.5C13.8978 22.4 14.2794 22.2314 14.5607 21.9314C14.842 21.6313 15 21.2243 15 20.8C15 20.3757 14.842 19.9687 14.5607 19.6686C14.2794 19.3686 13.8978 19.2 13.5 19.2ZM19.5 3.2H17.73C17.4205 2.26632 16.8479 1.4576 16.0906 0.884702C15.3333 0.311806 14.4284 0.00278322 13.5 0H10.5C9.57158 0.00278322 8.6667 0.311806 7.9094 0.884702C7.15211 1.4576 6.57947 2.26632 6.27 3.2H4.5C3.30653 3.2 2.16193 3.70571 1.31802 4.60589C0.474106 5.50606 0 6.72696 0 8V27.2C0 28.473 0.474106 29.6939 1.31802 30.5941C2.16193 31.4943 3.30653 32 4.5 32H19.5C20.6935 32 21.8381 31.4943 22.682 30.5941C23.5259 29.6939 24 28.473 24 27.2V8C24 6.72696 23.5259 5.50606 22.682 4.60589C21.8381 3.70571 20.6935 3.2 19.5 3.2ZM9 4.8C9 4.37565 9.15804 3.96869 9.43934 3.66863C9.72064 3.36857 10.1022 3.2 10.5 3.2H13.5C13.8978 3.2 14.2794 3.36857 14.5607 3.66863C14.842 3.96869 15 4.37565 15 4.8V6.4H9V4.8ZM21 27.2C21 27.6243 20.842 28.0313 20.5607 28.3314C20.2794 28.6314 19.8978 28.8 19.5 28.8H4.5C4.10218 28.8 3.72064 28.6314 3.43934 28.3314C3.15804 28.0313 3 27.6243 3 27.2V8C3 7.57565 3.15804 7.16869 3.43934 6.86863C3.72064 6.56857 4.10218 6.4 4.5 6.4H6V8C6 8.42435 6.15804 8.83131 6.43934 9.13137C6.72064 9.43143 7.10218 9.6 7.5 9.6H16.5C16.8978 9.6 17.2794 9.43143 17.5607 9.13137C17.842 8.83131 18 8.42435 18 8V6.4H19.5C19.8978 6.4 20.2794 6.56857 20.5607 6.86863C20.842 7.16869 21 7.57565 21 8V27.2ZM16.5 12.8H7.5C7.10218 12.8 6.72064 12.9686 6.43934 13.2686C6.15804 13.5687 6 13.9757 6 14.4C6 14.8243 6.15804 15.2313 6.43934 15.5314C6.72064 15.8314 7.10218 16 7.5 16H16.5C16.8978 16 17.2794 15.8314 17.5607 15.5314C17.842 15.2313 18 14.8243 18 14.4C18 13.9757 17.842 13.5687 17.5607 13.2686C17.2794 12.9686 16.8978 12.8 16.5 12.8Z"
    fill="black" />
</svg>
